<svg width="42" height="46" viewBox="0 0 42 46" fill="none" xmlns="http://www.w3.org/2000/svg">
<path fill-rule="evenodd" clip-rule="evenodd" d="M4.50215 31.9894C6.44328 30.0483 9.076 28.9578 11.8212 28.9578H30.46C33.2051 28.9578 35.8379 30.0483 37.779 31.9894C39.7201 33.9305 40.8106 36.5632 40.8106 39.3084V43.9681C40.8106 44.5377 40.3489 44.9994 39.7794 44.9994C39.2098 44.9994 38.7481 44.5377 38.7481 43.9681V39.3084C38.7481 37.1103 37.8749 35.0021 36.3206 33.4478C34.7663 31.8935 32.6581 31.0203 30.46 31.0203H11.8212C9.62301 31.0203 7.51489 31.8935 5.96055 33.4478C4.40622 35.0021 3.53301 37.1103 3.53301 39.3084V43.9681C3.53301 44.5377 3.07131 44.9994 2.50177 44.9994C1.93222 44.9994 1.47052 44.5377 1.47052 43.9681V39.3084C1.47052 36.5632 2.56103 33.9305 4.50215 31.9894Z" fill="white" stroke="white" stroke-width="2" stroke-linecap="round" stroke-linejoin="round"/>
<path fill-rule="evenodd" clip-rule="evenodd" d="M21.1406 3.06249C16.5631 3.06249 12.8524 6.77322 12.8524 11.3506C12.8524 15.9281 16.5631 19.6388 21.1406 19.6388C25.718 19.6388 29.4287 15.9281 29.4287 11.3506C29.4287 6.77322 25.718 3.06249 21.1406 3.06249ZM10.7899 11.3506C10.7899 5.63414 15.4241 1 21.1406 1C26.8571 1 31.4912 5.63414 31.4912 11.3506C31.4912 17.0672 26.8571 21.7013 21.1406 21.7013C15.4241 21.7013 10.7899 17.0672 10.7899 11.3506Z" fill="white" stroke="white" stroke-width="2" stroke-linecap="round" stroke-linejoin="round"/>
</svg>
