<svg width="132" height="110" viewBox="0 0 132 110" fill="none" xmlns="http://www.w3.org/2000/svg">
<path d="M129 94.6364C129 97.6743 127.793 100.588 125.645 102.736C123.497 104.884 120.583 106.091 117.545 106.091H14.4545C11.4166 106.091 8.5031 104.884 6.35496 102.736C4.20681 100.588 3 97.6743 3 94.6364V31.6364C3 28.5984 4.20681 25.6849 6.35496 23.5368C8.5031 21.3886 11.4166 20.1818 14.4545 20.1818H37.3636L48.8182 3H83.1818L94.6364 20.1818H117.545C120.583 20.1818 123.497 21.3886 125.645 23.5368C127.793 25.6849 129 28.5984 129 31.6364V94.6364Z" stroke="#00B855" stroke-width="6" stroke-linecap="round" stroke-linejoin="round"/>
<path d="M66.9999 83.1818C79.6523 83.1818 89.909 72.9251 89.909 60.2727C89.909 47.6204 79.6523 37.3636 66.9999 37.3636C54.3476 37.3636 44.0908 47.6204 44.0908 60.2727C44.0908 72.9251 54.3476 83.1818 66.9999 83.1818Z" stroke="#00B855" stroke-width="6" stroke-linecap="round" stroke-linejoin="round"/>
</svg>
